# xmcd
# 
# Track frame offsets:
#     150
#     14391
#     30105
#     47811
#     61146
#     82665
#     100429
#     114401
#     126345
#     148704
#     163103
#     178822
# 
# Disc length: 2674
# 
# Revision: 3
# Processed by: cddbd v1.5.2PL0 Copyright (c) Steve Scherf et al.
# Submitted via: fre:ac v1.0.31
# 
DISCID=970a700c
DTITLE=J. Karjalainen - Sinulle, Sofia
DYEAR=2015
DGENRE=Blues
TTITLE0=Sinulle, Sofia
TTITLE1=Stindebinde
TTITLE2=Voikukkia
TTITLE3=Kaksi lusikkaa
TTITLE4=Kitara ja viinii
TTITLE5=Mennä huitelee
TTITLE6=Hänen vasen kätensä
TTITLE7=Se mies oli Tommy Ramone
TTITLE8=Koska taas nähdä sut saan?
TTITLE9=Tuulentyttö
TTITLE10=Mustikanlehti
TTITLE11=Sinulle, Sofia (jälkikirjoitus)
EXTD=
EXTT0=
EXTT1=
EXTT2=
EXTT3=
EXTT4=
EXTT5=
EXTT6=
EXTT7=
EXTT8=
EXTT9=
EXTT10=
EXTT11=
PLAYORDER=
